<?xml version="1.0" encoding="utf-8"?>
<!-- Generator: Adobe Illustrator 24.2.3, SVG Export Plug-In . SVG Version: 6.00 Build 0)  -->
<svg version="1.1" id="Layer_1" xmlns="http://www.w3.org/2000/svg" xmlns:xlink="http://www.w3.org/1999/xlink" x="0px" y="0px"
	 viewBox="0 0 200 50" style="enable-background:new 0 0 200 50;" xml:space="preserve">
<style type="text/css">
	.st0{fill:#ECE6E6;}
</style>
<path class="st0" d="M49.25,35.39c-0.42-4.61-4.14-8.36-8.74-8.82c-3.17-0.32-6.05,0.89-8.04,2.96c-0.49,0.51-1.27,0.63-1.91,0.33
	l-2.21-1.06c-0.65-0.31-1.04-1.01-0.94-1.73c0.07-0.49,0.11-0.99,0.11-1.49c0-0.66-0.06-1.3-0.17-1.93
	c-0.13-0.75,0.29-1.49,0.99-1.79l2.03-0.9c0.65-0.29,1.42-0.14,1.89,0.38c1.97,2.18,4.91,3.47,8.14,3.18
	c4.69-0.42,8.48-4.25,8.86-8.94c0.48-5.98-4.42-10.94-10.38-10.57c-4.08,0.26-7.6,3.14-8.76,7.07c-0.37,1.25-0.46,2.46-0.35,3.62
	c0.07,0.71-0.33,1.39-0.99,1.68l-2.32,1.03c-0.67,0.3-1.44,0.11-1.93-0.43c-2.08-2.24-5.05-3.63-8.36-3.58
	c-5.81,0.09-10.68,4.76-10.99,10.56c-0.35,6.46,4.78,11.8,11.16,11.8c3.42,0,6.47-1.53,8.52-3.95c0.48-0.57,1.3-0.72,1.98-0.4
	l2.03,0.97c0.65,0.31,1.03,0.99,0.94,1.7c-0.19,1.44-0.06,2.98,0.58,4.6c1.47,3.69,4.94,6.31,8.9,6.4
	C45.1,46.21,49.78,41.28,49.25,35.39z M39.51,8.42c3.51,0,6.36,2.85,6.36,6.36c0,3.51-2.85,6.36-6.36,6.36
	c-3.51,0-6.36-2.85-6.36-6.36C33.15,11.27,35.99,8.42,39.51,8.42z M16.34,33.1c-4.15,0-7.52-3.37-7.52-7.52s3.37-7.52,7.52-7.52
	s7.52,3.37,7.52,7.52S20.49,33.1,16.34,33.1z M39.51,42.67c-3.51,0-6.36-2.85-6.36-6.36c0-3.51,2.85-6.36,6.36-6.36
	c3.51,0,6.36,2.85,6.36,6.36C45.87,39.82,43.02,42.67,39.51,42.67z"/>
<path class="st0" d="M16.11,20.14c-2.88,0-5.21,2.33-5.21,5.21c0,2.88,2.33,5.21,5.21,5.21s5.21-2.33,5.21-5.21
	C21.32,22.48,18.98,20.14,16.11,20.14z M15.88,29.75c-2.56,0-4.63-2.07-4.63-4.63c0-2.56,2.07-4.63,4.63-4.63s4.63,2.07,4.63,4.63
	C20.51,27.68,18.43,29.75,15.88,29.75z"/>
<path class="st0" d="M39.31,10.12c-2.46,0-4.46,2-4.46,4.46c0,2.46,2,4.46,4.46,4.46s4.46-2,4.46-4.46
	C43.77,12.12,41.78,10.12,39.31,10.12z M39.11,18.35c-2.19,0-3.97-1.78-3.97-3.97c0-2.19,1.78-3.97,3.97-3.97
	c2.19,0,3.97,1.78,3.97,3.97C43.08,16.58,41.3,18.35,39.11,18.35z"/>
<path class="st0" d="M39.31,31.64c-2.46,0-4.46,2-4.46,4.46c0,2.46,2,4.46,4.46,4.46s4.46-2,4.46-4.46
	C43.77,33.64,41.78,31.64,39.31,31.64z M39.11,39.88c-2.19,0-3.97-1.78-3.97-3.97c0-2.19,1.78-3.97,3.97-3.97
	c2.19,0,3.97,1.78,3.97,3.97C43.08,38.1,41.3,39.88,39.11,39.88z"/>
<g>
	<path class="st0" d="M69.65,21.55c0,1.54,0,2.05,1.41,2.05c1.35,0,1.67-0.06,2.21-0.06c1.83,0,1.89,0.29,1.89,1.73v0.29
		c0,2.31,0,2.63-2.18,2.63c-0.64,0-1.76-0.06-2.24-0.06c-1.06,0-1.09,0.22-1.09,1.86v4.87c0,1.28,0,2.56-1.92,2.56h-1.6
		c-1.92,0-1.92-1.28-1.92-2.56V17.22c0-0.96,0-2.56,1.92-2.56h7.95c0.8,0,1.51,0.32,1.51,0.96v2.72c0,0.64-0.26,0.8-1.41,0.8
		c-0.8,0-1.03-0.06-2.53-0.06C69.65,19.08,69.65,19.66,69.65,21.55z"/>
	<path class="st0" d="M76.22,23.44c0-5.16,0.48-8.94,7.24-8.94c6.44,0,6.89,3.72,6.89,8.81c0,1.92,0.1,3.81,0.1,5.51
		c0,5.06-0.8,8.75-6.99,8.75c-6.76,0-7.24-3.78-7.24-8.91c0-0.87,0.03-1.73,0.03-2.63C76.25,25.13,76.22,24.27,76.22,23.44z
		 M81.7,20.74v10.09c0,0.96,0,2.24,1.6,2.24s1.6-1.28,1.6-2.24V20.74c0-0.8,0-1.76-1.6-1.76S81.7,19.94,81.7,20.74z"/>
	<path class="st0" d="M91.31,23.44c0-5.16,0.48-8.94,7.24-8.94c6.44,0,6.89,3.72,6.89,8.81c0,1.92,0.1,3.81,0.1,5.51
		c0,5.06-0.8,8.75-6.99,8.75c-6.76,0-7.24-3.78-7.24-8.91c0-0.87,0.03-1.73,0.03-2.63C91.34,25.13,91.31,24.27,91.31,23.44z
		 M96.79,20.74v10.09c0,0.96,0,2.24,1.6,2.24c1.6,0,1.6-1.28,1.6-2.24V20.74c0-0.8,0-1.76-1.6-1.76
		C96.79,18.98,96.79,19.94,96.79,20.74z"/>
	<path class="st0" d="M113.26,14.66c7.05,0,8.01,4.49,8.01,11.38c0,6.57-0.64,11.38-8.01,11.38h-4.81c-1.92,0-1.92-1.28-1.92-2.56
		V17.22c0-1.28,0-2.56,1.92-2.56H113.26z M111.95,19.98c0,3.62,0.03,7.56,0.03,11.34c0,0.83,0.06,1.6,0.64,1.6
		c2.4,0,2.56-1.92,2.56-7.05c0-4.49-0.16-6.89-2.56-6.89C112.04,18.98,111.95,19.3,111.95,19.98z"/>
	<path class="st0" d="M128.96,14.5c2.66,0,4.45,0.48,4.45,1.38v2.47c0,0.35-0.13,0.96-1.22,0.96h-0.26c-0.51,0-1.67-0.35-2.6-0.35
		c-0.77,0-1.38,0.26-1.38,1.28c0,0.99,0.29,1.51,1.54,2.53c3.81,3.14,4.58,5.38,4.58,7.98c0,1.47-0.03,2.82-0.87,4.07
		c-1.06,1.6-2.72,2.21-3.43,2.4c-0.87,0.22-2.08,0.35-3.08,0.35c-2.37,0-4.68-0.45-4.68-1.73v-2.47c0-0.38,0.32-0.77,1.19-0.77
		c0.83,0,1.54,0.48,3.37,0.48c0.9,0,2.11-0.71,2.11-1.7c0-0.74-0.03-1.28-1.99-3.2c-2.98-2.92-4.39-4.26-4.39-6.89
		C122.33,14.98,126.4,14.5,128.96,14.5z"/>
	<path class="st0" d="M140.43,21.23c0,1.76,0,1.76,1.76,1.76c1.76,0,1.76,0,1.76-1.67c0-4.1,0-4.1,0-4.1c0-1.28,0-2.56,1.92-2.56
		h1.6c1.92,0,1.92,1.28,1.92,2.56v17.62c0,1.28,0,2.56-1.92,2.56h-1.6c-1.92,0-1.92-1.28-1.92-2.56v-4.81
		c0-2.12-0.13-2.24-1.76-2.24h-0.35c-1.03,0-1.41,0-1.41,1.63v0.61c0,4.81,0,4.81,0,4.81c0,1.28,0,2.56-1.92,2.56h-1.6
		c-1.92,0-1.92-1.28-1.92-2.56V17.22c0-1.28,0-2.56,1.92-2.56h1.6c1.92,0,1.92,1.28,1.92,2.56V21.23z"/>
	<path class="st0" d="M166.32,35.8c0,1.47-0.99,1.6-2.82,1.6h-1.7c-1.99,0-0.99-4.81-2.28-4.81h-2.56c-1.28,0-0.54,4.81-2.47,4.81
		h-1.51c-1.67,0-2.66-0.13-2.66-1.6c0-1.92,0.77-3.62,3.27-18.58c0.26-1.6,0.9-2.56,2.18-2.56h4.93c1.28,0,1.92,0.96,2.24,2.56
		C165.14,30.36,166.32,33.88,166.32,35.8z M157,27.28c0,0.51,0.22,0.51,1.25,0.51c0.99,0,1.25,0,1.25-0.48c0-0.13,0-0.29-0.03-0.51
		c-0.38-3.14-0.51-7.02-1.22-7.02c-0.67,0-0.9,3.85-1.22,7.02C157,26.99,157,27.15,157,27.28z"/>
	<path class="st0" d="M175.42,14.66c4.77,0,6.12,3.43,6.12,7.21c0,2.31-0.03,3.78-1.86,5.32c-0.9,0.77-1.47,0.32-1.47,1.54
		c0,1.31,0.42,2.92,1.47,2.92c0.58,0,0.93-0.16,1.03-0.16c1.03,0,1.19,0.87,1.19,2.34c0,0.71-0.03,1.57-0.03,2.53
		c0,0.64-0.26,1.22-1.92,1.22c-2.95,0-4.45-2.18-5.06-4.55c-0.77-2.98-1.73-3.49-1.92-3.49c-0.26,0-0.26,0.51-0.26,0.77v4.55
		c0,1.28,0,2.56-1.92,2.56h-2.24c-1.28,0-1.28-1.28-1.28-2.56V17.22c0-1.28,0-2.56,1.92-2.56H175.42z M172.67,20.36
		c0,0.42,0.03,1.15,0.03,1.83c0,0.64-0.03,1.22-0.03,1.6c0,1.06,0.19,1.25,1.47,1.25c1.44,0,1.76-1.41,1.76-2.85s-0.32-3.2-1.76-3.2
		C172.86,18.98,172.67,19.21,172.67,20.36z"/>
	<path class="st0" d="M188.24,31.54c0.06,0.71,0.71,1.06,1.35,1.06c1.83,0,2.44-0.06,3.11-0.06c1.35,0,1.76,0.38,1.76,1.35v2.24
		c0,0.96-0.32,1.28-1.28,1.28h-8.46c-1.92,0-1.92-1.92-1.92-2.56V17.22c0-1.28,0-2.56,1.92-2.56h8.27c0.8,0,1.51,0.32,1.51,0.96
		v2.72c0,0.77-0.64,0.8-1.44,0.8c-1.25,0-2.24-0.06-3.04-0.06c-1.76,0-1.76,0.64-1.76,1.67c0,2.08,0,2.63,1.6,2.63
		c1.99,0,2.31-0.06,3.04-0.06c1.12,0,1.19,1.12,1.19,1.47v2.05c0,0.96-0.67,1.03-1.47,1.03c-1.63,0-2.66-0.06-3.33-0.06
		c-1.03,0-1.03,0.45-1.03,1.51V31.54z"/>
</g>
</svg>
