<?xml version="1.0" encoding="utf-8"?>
<!-- Generator: Adobe Illustrator 24.2.3, SVG Export Plug-In . SVG Version: 6.00 Build 0)  -->
<svg version="1.1" id="Layer_1" xmlns="http://www.w3.org/2000/svg" xmlns:xlink="http://www.w3.org/1999/xlink" x="0px" y="0px"
	 viewBox="0 0 130 55" style="enable-background:new 0 0 130 55;" xml:space="preserve">
<style type="text/css">
	.st0{fill:#DC2426;}
</style>
<path class="st0" d="M58.87,40.76c-0.54-6.01-5.39-10.9-11.39-11.5c-4.13-0.41-7.89,1.15-10.49,3.86c-0.64,0.67-1.65,0.83-2.49,0.43
	l-2.88-1.38c-0.85-0.41-1.35-1.32-1.22-2.25c0.09-0.64,0.14-1.29,0.14-1.95c0-0.86-0.08-1.7-0.22-2.52
	c-0.17-0.98,0.38-1.94,1.29-2.34l2.65-1.17c0.85-0.37,1.85-0.19,2.47,0.5c2.57,2.84,6.4,4.52,10.61,4.15
	c6.11-0.54,11.06-5.54,11.55-11.65c0.62-7.79-5.76-14.26-13.53-13.78c-5.32,0.33-9.91,4.1-11.42,9.21c-0.48,1.63-0.6,3.21-0.46,4.71
	c0.09,0.93-0.43,1.81-1.29,2.19l-3.03,1.34c-0.87,0.39-1.87,0.14-2.52-0.55c-2.71-2.92-6.58-4.73-10.89-4.67
	c-7.57,0.11-13.92,6.2-14.33,13.76c-0.45,8.42,6.24,15.38,14.55,15.38c4.45,0,8.44-2,11.11-5.14c0.63-0.74,1.7-0.94,2.58-0.52
	l2.64,1.26c0.84,0.4,1.35,1.3,1.23,2.22c-0.25,1.88-0.08,3.88,0.76,5.99c1.92,4.81,6.43,8.23,11.61,8.34
	C53.46,54.86,59.57,48.43,58.87,40.76z M46.18,5.59c4.58,0,8.3,3.71,8.3,8.3s-3.71,8.3-8.3,8.3s-8.3-3.71-8.3-8.3
	S41.59,5.59,46.18,5.59z M15.97,37.77c-5.42,0-9.8-4.39-9.8-9.8s4.39-9.8,9.8-9.8c5.41,0,9.8,4.39,9.8,9.8S21.39,37.77,15.97,37.77z
	 M46.18,50.24c-4.58,0-8.3-3.71-8.3-8.3c0-4.58,3.71-8.3,8.3-8.3s8.3,3.71,8.3,8.3C54.47,46.52,50.76,50.24,46.18,50.24z"/>
<path class="st0" d="M15.67,20.88c-3.75,0-6.79,3.04-6.79,6.79c0,3.75,3.04,6.79,6.79,6.79s6.79-3.04,6.79-6.79
	C22.46,23.91,19.42,20.88,15.67,20.88z M15.37,33.4c-3.33,0-6.03-2.7-6.03-6.03c0-3.33,2.7-6.03,6.03-6.03s6.03,2.7,6.03,6.03
	C21.4,30.69,18.7,33.4,15.37,33.4z"/>
<path class="st0" d="M45.92,7.81c-3.21,0-5.82,2.6-5.82,5.82c0,3.21,2.6,5.82,5.82,5.82c3.21,0,5.82-2.6,5.82-5.82
	C51.74,10.41,49.13,7.81,45.92,7.81z M45.66,18.54c-2.86,0-5.17-2.32-5.17-5.17c0-2.86,2.32-5.17,5.17-5.17s5.17,2.32,5.17,5.17
	C50.83,16.23,48.51,18.54,45.66,18.54z"/>
<path class="st0" d="M45.92,35.87c-3.21,0-5.82,2.6-5.82,5.82c0,3.21,2.6,5.82,5.82,5.82c3.21,0,5.82-2.6,5.82-5.82
	C51.74,38.47,49.13,35.87,45.92,35.87z M45.66,46.6c-2.86,0-5.17-2.32-5.17-5.17c0-2.86,2.32-5.17,5.17-5.17s5.17,2.32,5.17,5.17
	C50.83,44.28,48.51,46.6,45.66,46.6z"/>
<g>
	<path class="st0" d="M71.18,11.24c0,1.51,0,2.01,1.39,2.01c1.32,0,1.64-0.06,2.17-0.06c1.79,0,1.86,0.28,1.86,1.7v0.28
		c0,2.27,0,2.58-2.14,2.58c-0.63,0-1.73-0.06-2.2-0.06c-1.04,0-1.07,0.22-1.07,1.83v4.78c0,1.26,0,2.52-1.89,2.52h-1.57
		c-1.89,0-1.89-1.26-1.89-2.52V6.99c0-0.94,0-2.52,1.89-2.52h7.81c0.79,0,1.48,0.31,1.48,0.94v2.68c0,0.63-0.25,0.79-1.38,0.79
		c-0.79,0-1.01-0.06-2.49-0.06C71.18,8.82,71.18,9.38,71.18,11.24z"/>
	<path class="st0" d="M79.9,13.1c0-5.07,0.47-8.78,7.11-8.78c6.33,0,6.77,3.65,6.77,8.66c0,1.89,0.09,3.75,0.09,5.41
		c0,4.97-0.79,8.59-6.86,8.59c-6.64,0-7.11-3.71-7.11-8.75c0-0.85,0.03-1.7,0.03-2.58C79.93,14.77,79.9,13.92,79.9,13.1z
		 M85.28,10.45v9.92c0,0.94,0,2.2,1.57,2.2s1.57-1.26,1.57-2.2v-9.92c0-0.79,0-1.73-1.57-1.73S85.28,9.67,85.28,10.45z"/>
	<path class="st0" d="M96.99,13.1c0-5.07,0.47-8.78,7.11-8.78c6.33,0,6.77,3.65,6.77,8.66c0,1.89,0.09,3.75,0.09,5.41
		c0,4.97-0.79,8.59-6.86,8.59c-6.64,0-7.11-3.71-7.11-8.75c0-0.85,0.03-1.7,0.03-2.58C97.02,14.77,96.99,13.92,96.99,13.1z
		 M102.38,10.45v9.92c0,0.94,0,2.2,1.57,2.2s1.57-1.26,1.57-2.2v-9.92c0-0.79,0-1.73-1.57-1.73S102.38,9.67,102.38,10.45z"/>
	<path class="st0" d="M120.82,4.47c6.93,0,7.87,4.41,7.87,11.18c0,6.45-0.63,11.17-7.87,11.17h-4.72c-1.89,0-1.89-1.26-1.89-2.52
		V6.99c0-1.26,0-2.52,1.89-2.52H120.82z M119.53,9.7c0,3.56,0.03,7.43,0.03,11.14c0,0.82,0.06,1.57,0.63,1.57
		c2.36,0,2.52-1.89,2.52-6.93c0-4.41-0.16-6.77-2.52-6.77C119.63,8.72,119.53,9.04,119.53,9.7z"/>
	<path class="st0" d="M71.59,30.85c2.32,0,3.89,0.42,3.89,1.2v2.16c0,0.31-0.11,0.84-1.06,0.84h-0.22c-0.45,0-1.46-0.31-2.27-0.31
		c-0.67,0-1.2,0.22-1.2,1.12c0,0.87,0.25,1.32,1.34,2.21c3.33,2.74,4,4.7,4,6.97c0,1.29-0.03,2.46-0.76,3.56
		c-0.92,1.4-2.38,1.93-3,2.1c-0.76,0.2-1.82,0.31-2.69,0.31c-2.07,0-4.09-0.39-4.09-1.51v-2.16c0-0.34,0.28-0.67,1.04-0.67
		c0.73,0,1.34,0.42,2.94,0.42c0.78,0,1.85-0.62,1.85-1.48c0-0.64-0.03-1.12-1.74-2.8c-2.6-2.55-3.84-3.72-3.84-6.02
		C65.79,31.27,69.35,30.85,71.59,30.85z"/>
	<path class="st0" d="M81.62,36.73c0,1.54,0,1.54,1.54,1.54s1.54,0,1.54-1.46c0-3.58,0-3.58,0-3.58c0-1.12,0-2.24,1.68-2.24h1.4
		c1.68,0,1.68,1.12,1.68,2.24v15.4c0,1.12,0,2.24-1.68,2.24h-1.4c-1.68,0-1.68-1.12-1.68-2.24v-4.2c0-1.85-0.11-1.96-1.54-1.96
		h-0.31c-0.9,0-1.23,0-1.23,1.43v0.53c0,4.2,0,4.2,0,4.2c0,1.12,0,2.24-1.68,2.24h-1.4c-1.68,0-1.68-1.12-1.68-2.24v-15.4
		c0-1.12,0-2.24,1.68-2.24h1.4c1.68,0,1.68,1.12,1.68,2.24V36.73z"/>
	<path class="st0" d="M104.24,49.47c0,1.29-0.87,1.4-2.46,1.4h-1.48c-1.74,0-0.87-4.2-1.99-4.2h-2.24c-1.12,0-0.48,4.2-2.16,4.2
		h-1.32c-1.46,0-2.32-0.11-2.32-1.4c0-1.68,0.67-3.16,2.86-16.24c0.22-1.4,0.78-2.24,1.9-2.24h4.31c1.12,0,1.68,0.84,1.96,2.24
		C103.21,44.71,104.24,47.79,104.24,49.47z M96.09,42.02c0,0.45,0.2,0.45,1.09,0.45c0.87,0,1.09,0,1.09-0.42
		c0-0.11,0-0.25-0.03-0.45c-0.34-2.74-0.45-6.13-1.06-6.13c-0.59,0-0.78,3.36-1.06,6.13C96.09,41.77,96.09,41.91,96.09,42.02z"/>
	<path class="st0" d="M112.2,30.99c4.17,0,5.35,3,5.35,6.3c0,2.02-0.03,3.3-1.62,4.65c-0.78,0.67-1.29,0.28-1.29,1.34
		c0,1.15,0.36,2.55,1.29,2.55c0.5,0,0.81-0.14,0.9-0.14c0.9,0,1.04,0.76,1.04,2.04c0,0.62-0.03,1.37-0.03,2.21
		c0,0.56-0.22,1.06-1.68,1.06c-2.58,0-3.89-1.9-4.42-3.98c-0.67-2.6-1.51-3.05-1.68-3.05c-0.22,0-0.22,0.45-0.22,0.67v3.98
		c0,1.12,0,2.24-1.68,2.24h-1.96c-1.12,0-1.12-1.12-1.12-2.24v-15.4c0-1.12,0-2.24,1.68-2.24H112.2z M109.79,35.97
		c0,0.36,0.03,1.01,0.03,1.6c0,0.56-0.03,1.06-0.03,1.4c0,0.92,0.17,1.09,1.29,1.09c1.26,0,1.54-1.23,1.54-2.49s-0.28-2.8-1.54-2.8
		C109.96,34.77,109.79,34.97,109.79,35.97z"/>
	<path class="st0" d="M123.4,45.75c0.06,0.62,0.62,0.92,1.18,0.92c1.6,0,2.13-0.06,2.72-0.06c1.18,0,1.54,0.34,1.54,1.18v1.96
		c0,0.84-0.28,1.12-1.12,1.12h-7.39c-1.68,0-1.68-1.68-1.68-2.24v-15.4c0-1.12,0-2.24,1.68-2.24h7.22c0.7,0,1.32,0.28,1.32,0.84
		v2.38c0,0.67-0.56,0.7-1.26,0.7c-1.09,0-1.96-0.06-2.66-0.06c-1.54,0-1.54,0.56-1.54,1.46c0,1.82,0,2.3,1.4,2.3
		c1.74,0,2.02-0.06,2.66-0.06c0.98,0,1.04,0.98,1.04,1.29v1.79c0,0.84-0.59,0.9-1.29,0.9c-1.43,0-2.32-0.06-2.91-0.06
		c-0.9,0-0.9,0.39-0.9,1.32V45.75z"/>
</g>
</svg>
